<?xml version="1.0" encoding="UTF-8"?><svg id="Ebene_2" xmlns="http://www.w3.org/2000/svg" viewBox="0 0 88.4 26"><defs><style>.cls-1{fill:#d93f36;}.cls-2{fill:#ea9d9d;stroke:#d93f36;stroke-miterlimit:10;stroke-width:2px;}</style></defs><g id="Ebene_1-2"><rect class="cls-2" x="1" y="1" width="86.4" height="24" rx="12" ry="12"/><g><path class="cls-1" d="M16.05,13.59c0-2.59,1.64-4.09,3.73-4.09,.99,0,1.8,.47,2.33,.99l-.97,1.09c-.37-.35-.79-.56-1.36-.56-1.11,0-1.92,.94-1.92,2.51s.81,2.54,1.99,2.54c.56,0,1.03-.28,1.41-.69l.97,1.07c-.64,.75-1.51,1.15-2.56,1.15-1.94,0-3.62-1.37-3.62-4.01Z"/><path class="cls-1" d="M23.99,11.51h1.45l.14,1.3h.04c.59-.97,1.46-1.45,2.41-1.45,.52,0,.8,.09,1.14,.24l-.36,1.48c-.37-.11-.62-.17-1.05-.17-.74,0-1.5,.38-2.01,1.45v3.09h-1.77v-5.95Z"/><path class="cls-1" d="M33.14,12.89h-2.4v-1.38h4.16v5.95h-1.77v-4.57Zm-.37-3.39c0-.65,.49-1.1,1.17-1.1s1.17,.45,1.17,1.1-.49,1.08-1.17,1.08-1.17-.43-1.17-1.08Z"/><path class="cls-1" d="M39.09,14.99v-2.1h-1.5v-1.31l1.58-.07,.23-1.82h1.46v1.82h2.51v1.38h-2.51v2.08c0,.9,.38,1.25,1.25,1.25,.45,0,.83-.09,1.18-.21l.32,1.28c-.53,.16-1.15,.32-1.94,.32-1.89,0-2.57-1.05-2.57-2.61Z"/><path class="cls-1" d="M47.54,12.89h-2.4v-1.38h4.16v5.95h-1.77v-4.57Zm-.37-3.39c0-.65,.49-1.1,1.17-1.1s1.17,.45,1.17,1.1-.49,1.08-1.17,1.08-1.17-.43-1.17-1.08Z"/><path class="cls-1" d="M52.2,14.48c0-1.98,1.61-3.12,3.44-3.12,.94,0,1.73,.33,2.23,.81l-.81,1.09c-.45-.33-.87-.48-1.32-.48-1.02,0-1.73,.67-1.73,1.7s.69,1.69,1.67,1.69c.62,0,1.14-.27,1.57-.57l.71,1.11c-.72,.6-1.63,.88-2.44,.88-1.88,0-3.31-1.14-3.31-3.12Z"/><path class="cls-1" d="M59.33,15.81c0-1.33,1.1-2.01,3.91-2.18-.06-.53-.46-.86-1.26-.86-.57,0-1.14,.22-1.81,.56l-.63-1.16c.83-.47,1.77-.8,2.79-.8,1.67,0,2.69,.87,2.69,2.69v3.4h-1.44l-.13-.67h-.04c-.6,.45-1.35,.81-2.11,.81-1.2,0-1.96-.79-1.96-1.79Zm3.91-.14v-.97c-1.75,.09-2.22,.47-2.22,.98,0,.38,.32,.57,.82,.57,.53,0,.98-.24,1.4-.57Z"/><path class="cls-1" d="M68.26,15.13v-4.69h-1.87v-1.38h3.64v6.15c0,.74,.47,.97,.97,.97,.28,0,.57-.06,.93-.19l.39,1.3c-.62,.2-1.04,.32-1.78,.32-1.5,0-2.28-.96-2.28-2.47Z"/></g></g></svg>