<?xml version="1.0" encoding="UTF-8"?><svg id="Ebene_2" xmlns="http://www.w3.org/2000/svg" viewBox="0 0 88.4 26"><defs><style>.cls-1{fill:#08adff;}.cls-2{fill:#b4f0ff;stroke:#08adff;stroke-miterlimit:10;stroke-width:2px;}</style></defs><g id="Ebene_1-2"><rect class="cls-2" x="1" y="1" width="86.4" height="24" rx="12" ry="12"/><g><path class="cls-1" d="M30.69,15.72h1.83v-4.85h-1.83v-1.48h5.42v1.48h-1.83v4.85h1.83v1.48h-5.42v-1.48Z"/><path class="cls-1" d="M37.86,11.25h1.44l.13,.79h.05c.52-.51,1.17-.94,2.06-.94,1.34,0,1.94,.92,1.94,2.42v3.67h-1.77v-3.45c0-.79-.23-1.14-.87-1.14-.47,0-.79,.22-1.2,.62v3.97h-1.77v-5.95Z"/><path class="cls-1" d="M45.18,11.32l1.63-.07h3.75v1.38h-5.38v-1.31Zm1.57-.22c0-1.36,.79-2.44,2.66-2.44,.68,0,1.3,.15,1.8,.32l-.34,1.3c-.38-.14-.79-.23-1.24-.23-.76,0-1.12,.33-1.12,1.05v6.11h-1.76v-6.1Z"/><path class="cls-1" d="M51.96,14.23c0-1.98,1.46-3.12,3.03-3.12s3.03,1.14,3.03,3.12-1.46,3.12-3.03,3.12-3.03-1.14-3.03-3.12Zm4.26,0c0-1.03-.42-1.7-1.23-1.7s-1.23,.67-1.23,1.7,.42,1.69,1.23,1.69,1.23-.66,1.23-1.69Z"/></g></g></svg>