<?xml version="1.0" encoding="UTF-8"?><svg id="Ebene_2" xmlns="http://www.w3.org/2000/svg" viewBox="0 0 88.4 26"><defs><style>.cls-1{fill:#ff8d3b;}.cls-2{fill:#ffdb8e;stroke:#ff983b;stroke-miterlimit:10;stroke-width:2px;}</style></defs><g id="Ebene_1-2"><rect class="cls-2" x="1" y="1" width="86.4" height="24" rx="12" ry="12"/><g><path class="cls-1" d="M20.05,9.61h1.84l.23,4.16c.02,.67,.03,1.26,.04,1.96h.04c.11-.7,.25-1.3,.38-1.96l.53-2.18h1.13l.49,2.18c.12,.64,.27,1.24,.38,1.96h.05c.01-.72,.02-1.31,.04-1.96l.22-4.17h1.72l-.97,7.82h-1.89l-.46-2.42c-.09-.5-.18-1.02-.21-1.49h-.04c-.05,.47-.11,1-.21,1.49l-.45,2.42h-1.85l-1.04-7.82Z"/><path class="cls-1" d="M27.94,15.78c0-1.33,1.1-2.01,3.91-2.18-.06-.53-.46-.86-1.26-.86-.57,0-1.14,.22-1.81,.56l-.63-1.16c.83-.47,1.77-.8,2.79-.8,1.67,0,2.69,.87,2.69,2.69v3.4h-1.44l-.13-.67h-.04c-.6,.45-1.35,.81-2.11,.81-1.2,0-1.96-.79-1.96-1.79Zm3.91-.14v-.97c-1.75,.09-2.22,.47-2.22,.98,0,.38,.32,.57,.82,.57,.53,0,.98-.24,1.4-.57Z"/><path class="cls-1" d="M35.78,11.48h1.45l.14,1.3h.04c.59-.97,1.46-1.45,2.41-1.45,.52,0,.8,.09,1.14,.24l-.36,1.48c-.37-.11-.62-.17-1.05-.17-.74,0-1.5,.38-2.01,1.45v3.09h-1.77v-5.95Z"/><path class="cls-1" d="M42.46,11.48h1.44l.13,.79h.05c.52-.51,1.17-.94,2.06-.94,1.34,0,1.94,.92,1.94,2.42v3.67h-1.77v-3.45c0-.79-.23-1.14-.87-1.14-.47,0-.79,.22-1.2,.62v3.97h-1.77v-5.95Z"/><path class="cls-1" d="M52.14,12.86h-2.4v-1.38h4.16v5.95h-1.77v-4.57Zm-.37-3.39c0-.65,.49-1.1,1.17-1.1s1.17,.45,1.17,1.1-.49,1.08-1.17,1.08-1.17-.43-1.17-1.08Z"/><path class="cls-1" d="M56.86,11.48h1.44l.13,.79h.05c.52-.51,1.17-.94,2.06-.94,1.34,0,1.94,.92,1.94,2.42v3.67h-1.77v-3.45c0-.79-.23-1.14-.87-1.14-.47,0-.79,.22-1.2,.62v3.97h-1.77v-5.95Z"/><path class="cls-1" d="M63.82,18.44c0-.48,.32-.88,.92-1.19v-.05c-.33-.2-.6-.51-.6-1.01,0-.4,.29-.83,.71-1.12v-.05c-.44-.29-.79-.83-.79-1.53,0-1.43,1.2-2.16,2.55-2.16,.35,0,.69,.05,.98,.14h2.42v1.3h-1.2c.13,.18,.26,.47,.26,.78,0,1.37-1.07,1.99-2.45,1.99-.24,0-.52-.04-.82-.12-.18,.13-.27,.24-.27,.44,0,.32,.31,.45,1.01,.45h1.1c1.56,0,2.42,.44,2.42,1.51,0,1.24-1.38,2.14-3.55,2.14-1.55,0-2.7-.46-2.7-1.52Zm4.56-.32c0-.38-.37-.46-1.05-.46h-.75c-.43,0-.69-.02-.91-.08-.3,.19-.42,.37-.42,.58,0,.45,.58,.68,1.51,.68s1.62-.31,1.62-.72Zm-.86-4.63c0-.62-.41-.97-.9-.97s-.89,.34-.89,.97,.4,.99,.89,.99,.9-.34,.9-.99Z"/></g></g></svg>